999
"DXF R12 Output" (www.mydxf.blogspot.com)
 0 
SECTION
 2 
HEADER
 9 
$ACADVER
 1 
AC1009
 9 
$EXTMIN
 10 
 0 
 20 
 0 
 9 
$EXTMAX
 10 
 8.5 
 20 
 11 
 0 
ENDSEC
 0 
SECTION
 2 
ENTITIES
0
LINE
8
main
10
114.053000
20
83.573100
11
93.768322
21
83.573100
0
LINE
8
main
10
20.955000
20
75.353300
11
3.845315
21
75.388578
0
LINE
8
main
10
102.200000
20
3.704170
11
114.653028
21
25.329400
0
LINE
8
main
10
86.889200
20
11.394800
11
100.718058
21
3.422040
0
LINE
8
main
10
51.787700
20
16.121900
11
69.567661
21
16.086622
0
LINE
8
main
10
93.274400
20
83.925800
11
93.106831
21
84.212431
0
LINE
8
main
10
93.106831
20
84.212431
11
92.780512
21
84.313855
0
LINE
8
main
10
93.274400
20
83.925800
11
93.455198
21
83.670037
0
LINE
8
main
10
93.455198
20
83.670037
11
93.768288
21
83.573023
0
LINE
8
main
10
92.780600
20
84.313900
11
75.706193
21
84.313900
0
LINE
8
main
10
20.955000
20
75.353300
11
21.307777
21
75.494411
0
LINE
8
main
10
21.307777
20
75.494411
11
21.448888
21
75.847188
0
LINE
8
main
10
21.942800
20
87.383100
11
21.590023
21
87.241989
0
LINE
8
main
10
21.590023
20
87.241989
11
21.448912
21
86.889212
0
LINE
8
main
10
56.726700
20
93.345000
11
39.934515
21
93.345000
0
LINE
8
main
10
57.220600
20
87.312500
11
57.220600
21
92.851099
0
LINE
8
main
10
74.718300
20
86.818600
11
57.749726
21
86.818600
0
LINE
8
main
10
75.212300
20
84.807800
11
75.212300
21
86.324741
0
LINE
8
main
10
21.448900
20
86.853900
11
21.448900
21
75.847258
0
LINE
8
main
10
38.981900
20
87.383100
11
21.942771
21
87.383100
0
LINE
8
main
10
39.440600
20
92.815800
11
39.440600
21
87.841644
0
LINE
8
main
10
38.981900
20
87.383100
11
39.334677
21
87.524211
0
LINE
8
main
10
39.334677
20
87.524211
11
39.475788
21
87.876988
0
LINE
8
main
10
39.969800
20
93.309700
11
39.617023
21
93.168589
0
LINE
8
main
10
39.617023
20
93.168589
11
39.475912
21
92.815812
0
LINE
8
main
10
57.220600
20
92.851100
11
57.079489
21
93.203877
0
LINE
8
main
10
57.079489
20
93.203877
11
56.726712
21
93.344988
0
LINE
8
main
10
57.220600
20
87.312500
11
57.361711
21
86.959723
0
LINE
8
main
10
57.361711
20
86.959723
11
57.714488
21
86.818612
0
LINE
8
main
10
75.212300
20
86.289400
11
75.071189
21
86.642177
0
LINE
8
main
10
75.071189
20
86.642177
11
74.718412
21
86.783288
0
LINE
8
main
10
75.212300
20
84.807800
11
75.353411
21
84.455023
0
LINE
8
main
10
75.353411
20
84.455023
11
75.706188
21
84.313912
0
LINE
8
main
10
114.547000
20
83.079200
11
114.405889
21
83.431977
0
LINE
8
main
10
114.405889
20
83.431977
11
114.053112
21
83.573088
0
LINE
8
main
10
21.872200
20
36.512500
11
39.052440
21
36.512500
0
LINE
8
main
10
21.201900
20
26.634800
11
21.237178
21
35.912835
0
LINE
8
main
10
39.722700
20
36.089200
11
39.453708
21
36.393470
0
LINE
8
main
10
39.453708
20
36.393470
11
39.052424
21
36.512532
0
LINE
8
main
10
51.435000
20
16.263100
11
51.787777
21
16.121989
0
LINE
8
main
10
100.718000
20
3.421860
11
101.498519
21
3.395402
0
LINE
8
main
10
101.498519
20
3.395402
11
102.199663
21
3.739359
0
LINE
8
main
10
3.421940
20
43.603300
11
3.421940
21
26.634726
0
LINE
8
main
10
3.386670
20
74.930000
11
3.421948
21
60.642532
0
LINE
8
main
10
114.547000
20
83.079200
11
114.652833
21
25.364883
0
LINE
8
main
10
21.201900
20
25.259000
11
21.201900
21
26.634830
0
LINE
8
main
10
21.872200
20
36.512500
11
21.440048
21
36.331702
0
LINE
8
main
10
21.440048
20
36.331702
11
21.272479
21
35.912779
0
LINE
8
main
10
20.566900
20
24.588500
11
21.034330
21
24.778118
0
LINE
8
main
10
21.034330
20
24.778118
11
21.237176
21
25.258776
0
LINE
8
main
10
3.421940
20
25.259000
11
3.421940
21
26.634830
0
LINE
8
main
10
3.421940
20
60.677700
11
3.421940
21
43.603293
0
LINE
8
main
10
39.722700
20
36.089200
11
51.434896
21
16.263133
0
LINE
8
main
10
3.845270
20
75.388600
11
3.523361
21
75.251899
0
LINE
8
main
10
3.523361
20
75.251899
11
3.386660
21
74.929990
0
LINE
8
main
10
4.092230
20
24.588500
11
20.566916
21
24.588500
0
LINE
8
main
10
69.567700
20
16.121900
11
86.889051
21
11.394688
0
LINE
8
main
10
3.421940
20
25.259000
11
3.611558
21
24.791570
0
LINE
8
main
10
3.611558
20
24.791570
11
4.092216
21
24.588724
0
LINE
8
hole5
10
21.413600
20
55.174400
11
22.045330
21
55.046899
0
LINE
8
hole5
10
22.045330
20
55.046899
11
22.561139
21
54.699165
0
LINE
8
hole5
10
22.561139
20
54.699165
11
22.908873
21
54.183356
0
LINE
8
hole5
10
22.908873
20
54.183356
11
23.036374
21
53.551626
0
LINE
8
hole5
10
23.036374
20
53.551626
11
22.908873
21
52.919896
0
LINE
8
hole5
10
22.908873
20
52.919896
11
22.561139
21
52.404086
0
LINE
8
hole5
10
22.561139
20
52.404086
11
22.045330
21
52.056353
0
LINE
8
hole5
10
22.045330
20
52.056353
11
21.413600
21
51.928852
0
LINE
8
hole5
10
21.413600
20
51.928852
11
20.782019
21
52.056353
0
LINE
8
hole5
10
20.782019
20
52.056353
11
20.266193
21
52.404086
0
LINE
8
hole5
10
20.266193
20
52.404086
11
19.918377
21
52.919896
0
LINE
8
hole5
10
19.918377
20
52.919896
11
19.790826
21
53.551626
0
LINE
8
hole5
10
19.790826
20
53.551626
11
19.918377
21
54.183356
0
LINE
8
hole5
10
19.918377
20
54.183356
11
20.266193
21
54.699165
0
LINE
8
hole5
10
20.266193
20
54.699165
11
20.782019
21
55.046899
0
LINE
8
hole5
10
20.782019
20
55.046899
11
21.413600
21
55.174400
0
LINE
8
hole5
10
21.413600
20
55.174400
11
21.413600
21
55.174400
0
LINE
8
hole4
10
93.415600
20
28.645600
11
94.047181
21
28.518099
0
LINE
8
hole4
10
94.047181
20
28.518099
11
94.563007
21
28.170365
0
LINE
8
hole4
10
94.563007
20
28.170365
11
94.910823
21
27.654556
0
LINE
8
hole4
10
94.910823
20
27.654556
11
95.038374
21
27.022826
0
LINE
8
hole4
10
95.038374
20
27.022826
11
94.910823
21
26.391096
0
LINE
8
hole4
10
94.910823
20
26.391096
11
94.563007
21
25.875286
0
LINE
8
hole4
10
94.563007
20
25.875286
11
94.047181
21
25.527553
0
LINE
8
hole4
10
94.047181
20
25.527553
11
93.415600
21
25.400052
0
LINE
8
hole4
10
93.415600
20
25.400052
11
92.784019
21
25.527553
0
LINE
8
hole4
10
92.784019
20
25.527553
11
92.268193
21
25.875286
0
LINE
8
hole4
10
92.268193
20
25.875286
11
91.920377
21
26.391096
0
LINE
8
hole4
10
91.920377
20
26.391096
11
91.792826
21
27.022826
0
LINE
8
hole4
10
91.792826
20
27.022826
11
91.920377
21
27.654556
0
LINE
8
hole4
10
91.920377
20
27.654556
11
92.268193
21
28.170365
0
LINE
8
hole4
10
92.268193
20
28.170365
11
92.784019
21
28.518099
0
LINE
8
hole4
10
92.784019
20
28.518099
11
93.415600
21
28.645600
0
LINE
8
hole4
10
93.415600
20
28.645600
11
93.415600
21
28.645600
0
LINE
8
hole3
10
50.376700
20
34.854400
11
51.008430
21
34.726899
0
LINE
8
hole3
10
51.008430
20
34.726899
11
51.524239
21
34.379165
0
LINE
8
hole3
10
51.524239
20
34.379165
11
51.871973
21
33.863356
0
LINE
8
hole3
10
51.871973
20
33.863356
11
51.999474
21
33.231626
0
LINE
8
hole3
10
51.999474
20
33.231626
11
51.871973
21
32.599896
0
LINE
8
hole3
10
51.871973
20
32.599896
11
51.524239
21
32.084086
0
LINE
8
hole3
10
51.524239
20
32.084086
11
51.008430
21
31.736353
0
LINE
8
hole3
10
51.008430
20
31.736353
11
50.376700
21
31.608852
0
LINE
8
hole3
10
50.376700
20
31.608852
11
49.744970
21
31.736353
0
LINE
8
hole3
10
49.744970
20
31.736353
11
49.229161
21
32.084086
0
LINE
8
hole3
10
49.229161
20
32.084086
11
48.881427
21
32.599896
0
LINE
8
hole3
10
48.881427
20
32.599896
11
48.753926
21
33.231626
0
LINE
8
hole3
10
48.753926
20
33.231626
11
48.881427
21
33.863356
0
LINE
8
hole3
10
48.881427
20
33.863356
11
49.229161
21
34.379165
0
LINE
8
hole3
10
49.229161
20
34.379165
11
49.744970
21
34.726899
0
LINE
8
hole3
10
49.744970
20
34.726899
11
50.376700
21
34.854400
0
LINE
8
hole3
10
50.376700
20
34.854400
11
50.376700
21
34.854400
0
LINE
8
hole1
10
21.413600
20
72.213600
11
22.045330
21
72.086099
0
LINE
8
hole1
10
22.045330
20
72.086099
11
22.561139
21
71.738365
0
LINE
8
hole1
10
22.561139
20
71.738365
11
22.908873
21
71.222556
0
LINE
8
hole1
10
22.908873
20
71.222556
11
23.036374
21
70.590826
0
LINE
8
hole1
10
23.036374
20
70.590826
11
22.908873
21
69.959096
0
LINE
8
hole1
10
22.908873
20
69.959096
11
22.561139
21
69.443286
0
LINE
8
hole1
10
22.561139
20
69.443286
11
22.045330
21
69.095553
0
LINE
8
hole1
10
22.045330
20
69.095553
11
21.413600
21
68.968052
0
LINE
8
hole1
10
21.413600
20
68.968052
11
20.782019
21
69.095553
0
LINE
8
hole1
10
20.782019
20
69.095553
11
20.266193
21
69.443286
0
LINE
8
hole1
10
20.266193
20
69.443286
11
19.918377
21
69.959096
0
LINE
8
hole1
10
19.918377
20
69.959096
11
19.790826
21
70.590826
0
LINE
8
hole1
10
19.790826
20
70.590826
11
19.918377
21
71.222556
0
LINE
8
hole1
10
19.918377
20
71.222556
11
20.266193
21
71.738365
0
LINE
8
hole1
10
20.266193
20
71.738365
11
20.782019
21
72.086099
0
LINE
8
hole1
10
20.782019
20
72.086099
11
21.413600
21
72.213600
0
LINE
8
hole1
10
21.413600
20
72.213600
11
21.413600
21
72.213600
0
LINE
8
hole2
10
75.388500
20
69.144400
11
76.020230
21
69.016899
0
LINE
8
hole2
10
76.020230
20
69.016899
11
76.536039
21
68.669165
0
LINE
8
hole2
10
76.536039
20
68.669165
11
76.883773
21
68.153356
0
LINE
8
hole2
10
76.883773
20
68.153356
11
77.011274
21
67.521626
0
LINE
8
hole2
10
77.011274
20
67.521626
11
76.883773
21
66.889896
0
LINE
8
hole2
10
76.883773
20
66.889896
11
76.536039
21
66.374086
0
LINE
8
hole2
10
76.536039
20
66.374086
11
76.020230
21
66.026353
0
LINE
8
hole2
10
76.020230
20
66.026353
11
75.388500
21
65.898852
0
LINE
8
hole2
10
75.388500
20
65.898852
11
74.756770
21
66.026353
0
LINE
8
hole2
10
74.756770
20
66.026353
11
74.240961
21
66.374086
0
LINE
8
hole2
10
74.240961
20
66.374086
11
73.893227
21
66.889896
0
LINE
8
hole2
10
73.893227
20
66.889896
11
73.765726
21
67.521626
0
LINE
8
hole2
10
73.765726
20
67.521626
11
73.893227
21
68.153356
0
LINE
8
hole2
10
73.893227
20
68.153356
11
74.240961
21
68.669165
0
LINE
8
hole2
10
74.240961
20
68.669165
11
74.756770
21
69.016899
0
LINE
8
hole2
10
74.756770
20
69.016899
11
75.388500
21
69.144400
0
LINE
8
hole2
10
75.388500
20
69.144400
11
75.388500
21
69.144400
 0 
ENDSEC
 0 
EOF